<?xml version="1.0" encoding="utf-8"?>
<!-- Generator: Adobe Illustrator 23.0.4, SVG Export Plug-In . SVG Version: 6.00 Build 0)  -->
<svg version="1.1" id="Ebene_1" xmlns="http://www.w3.org/2000/svg" xmlns:xlink="http://www.w3.org/1999/xlink" x="0px" y="0px"
	 viewBox="0 0 368.5 368.5" style="enable-background:new 0 0 368.5 368.5;" xml:space="preserve">
<path d="M184.3,15.8c-93,0-168.4,75.4-168.4,168.4s75.4,168.4,168.4,168.4s168.4-75.4,168.4-168.4S277.3,15.8,184.3,15.8z
	 M287.8,233.6l6.6-33.2h-36.9l-6.6,33.2h-18.4c-2.8,0.7-5.7,1.1-8.7,1.1c-9,0-15.9-2.3-20.8-7c-4.9-4.7-7.3-11.5-7.3-20.5v-39.6
	h-2.4l0,0h-42.5l-3.5,17.6h37.7l-2.9,14.6h-37.8l-3.7,18.8h44.3l-3.1,15.1h-43.4l0,0H46.1l2.3-11.2h1.8c7.5,0,9.8-11.3,2.3-11.3
	h-1.8l2.5-12.3H55c7.5,0,9.8-11.3,2.3-11.3h-1.8l2.5-12.3h1.8c7.5,0,9.8-11.3,2.3-11.3h-1.8l2.3-11.2h86.8l0,0h46v-18.7h19.1v18.7
	h21.9v15.3h-21.9v38.9c0,4,1,7,2.9,9.1c1.9,2.1,4.7,3.1,8.4,3.1c3.6,0,6.7-0.8,9.2-2.4l12.9-64.5h19l-6.4,32.1h36.9l6.4-32.1H323
	l-16.3,81.6H287.8z"/>
</svg>
